<?xml version="1.0" encoding="utf-8"?><svg viewBox="0 0 65 61" xmlns="http://www.w3.org/2000/svg" xmlns:xlink="http://www.w3.org/1999/xlink"><style>:root>svg{display:none}:root>svg:target{display:block}</style><svg fill="none" viewBox="0 0 53 53" id="avatar_logo" xmlns="http://www.w3.org/2000/svg"><circle cx="26.5" cy="26.5" r="26.5" fill="#5B40FF"/><g clip-path="url(#aclip0_33_431)"><path d="M26.898 35.694L14.79 28.548l12.1 17.058 12.113-17.058-12.113 7.146h.007zm.18-29.531L14.975 26.25l12.103 7.157 12.107-7.15L27.078 6.163z" fill="#fff"/></g><defs><clipPath id="aclip0_33_431"><path fill="#fff" transform="translate(7.395 7.395)" d="M0 0h39.442v39.442H0z"/></clipPath></defs></svg><svg fill="none" viewBox="0 0 20 20" id="copyright" xmlns="http://www.w3.org/2000/svg"><path d="M8.08 8.86c.05-.33.16-.62.3-.87.14-.25.34-.46.59-.62.24-.15.54-.22.91-.23.23.01.44.05.63.13.2.09.38.21.52.36s.25.33.34.53c.09.2.13.42.14.64h1.79c-.02-.47-.11-.9-.28-1.29-.17-.39-.4-.73-.7-1.01-.3-.28-.66-.5-1.08-.66-.42-.16-.88-.23-1.39-.23-.65 0-1.22.11-1.7.34-.48.23-.88.53-1.2.92-.32.39-.56.84-.71 1.36C6.09 8.75 6 9.29 6 9.87v.27c0 .58.08 1.12.23 1.64.15.52.39.97.71 1.35.32.38.72.69 1.2.91.48.22 1.05.34 1.7.34.47 0 .91-.08 1.32-.23.41-.15.77-.36 1.08-.63.31-.27.56-.58.74-.94.18-.36.29-.74.3-1.15h-1.79c-.01.21-.06.4-.15.58-.09.18-.21.33-.36.46s-.32.23-.52.3c-.19.07-.39.09-.6.1-.36-.01-.66-.08-.89-.23a1.75 1.75 0 01-.59-.62c-.14-.25-.25-.55-.3-.88a6.74 6.74 0 01-.08-1v-.27c0-.35.03-.68.08-1.01zM10 0C4.48 0 0 4.48 0 10s4.48 10 10 10 10-4.48 10-10S15.52 0 10 0zm0 18c-4.41 0-8-3.59-8-8s3.59-8 8-8 8 3.59 8 8-3.59 8-8 8z" fill="#fff"/></svg><svg viewBox="0 0 40 30" id="discord" xmlns="http://www.w3.org/2000/svg"><path d="M33.86 2.488c-2.55-1.15-5.283-2-8.14-2.483a.125.125 0 00-.133.06c-.35.615-.74 1.416-1.013 2.05a30.941 30.941 0 00-9.144 0 20.585 20.585 0 00-1.028-2.05.128.128 0 00-.132-.063 33.299 33.299 0 00-8.141 2.484.117.117 0 00-.054.045C.89 10.156-.532 17.592.165 24.935a.134.134 0 00.052.092 33.38 33.38 0 009.988 4.966.13.13 0 00.14-.043 23.044 23.044 0 002.043-3.272.123.123 0 00-.023-.146.123.123 0 00-.045-.027 21.994 21.994 0 01-3.12-1.463.125.125 0 01-.013-.209c.21-.155.42-.316.62-.478a.125.125 0 01.13-.017c6.544 2.94 13.632 2.94 20.1 0a.125.125 0 01.132.015c.2.164.408.325.62.48a.124.124 0 01.05.107.126.126 0 01-.06.102 20.57 20.57 0 01-3.122 1.461.124.124 0 00-.082.124c.001.018.006.035.014.051a26.14 26.14 0 002.042 3.27.128.128 0 00.14.047 33.27 33.27 0 0010.002-4.968.126.126 0 00.053-.09c.834-8.49-1.396-15.866-5.914-22.402a.1.1 0 00-.052-.047zM13.367 20.464c-1.97 0-3.595-1.782-3.595-3.967 0-2.186 1.593-3.966 3.595-3.966 2.016 0 3.626 1.795 3.594 3.966 0 2.187-1.593 3.967-3.594 3.967zm13.29 0c-1.971 0-3.594-1.782-3.594-3.967 0-2.186 1.591-3.966 3.594-3.966 2.017 0 3.627 1.795 3.595 3.966 0 2.187-1.576 3.967-3.595 3.967z" fill-opacity=".7"/></svg><svg viewBox="0 0 31 30" id="instagram" xmlns="http://www.w3.org/2000/svg"><path d="M15.922 9.998A5.013 5.013 0 0010.92 15a5.013 5.013 0 005.002 5.002A5.013 5.013 0 0020.924 15a5.013 5.013 0 00-5.002-5.002zM30.925 15c0-2.071.019-4.124-.098-6.192-.116-2.401-.664-4.533-2.42-6.289C26.647.76 24.519.215 22.117.1 20.048-.018 17.995 0 15.927 0c-2.071 0-4.124-.019-6.192.098-2.401.116-4.533.664-6.289 2.42-1.76 1.76-2.304 3.888-2.42 6.29C.908 10.878.927 12.931.927 15c0 2.068-.019 4.124.098 6.192.116 2.401.664 4.533 2.42 6.289 1.76 1.76 3.888 2.304 6.29 2.42 2.07.117 4.123.098 6.191.098 2.071 0 4.124.019 6.192-.098 2.401-.116 4.533-.664 6.289-2.42 1.76-1.76 2.304-3.888 2.42-6.29.12-2.067.098-4.12.098-6.191zm-15.003 7.696A7.686 7.686 0 018.226 15a7.686 7.686 0 017.696-7.696A7.686 7.686 0 0123.62 15a7.686 7.686 0 01-7.697 7.696zm8.012-13.91a1.795 1.795 0 01-1.797-1.798c0-.994.802-1.797 1.797-1.797a1.795 1.795 0 011.661 2.486 1.794 1.794 0 01-1.661 1.109z" fill-opacity=".7"/></svg><svg viewBox="0 0 50 61" id="list_item" xmlns="http://www.w3.org/2000/svg"><path fill-rule="evenodd" clip-rule="evenodd" d="M33.676.388c9.763 0 15.364 4.832 15.364 13.25v41.837a4.833 4.833 0 01-2.423 4.22 4.846 4.846 0 01-4.87.04l-17.154-9.691-17.312 9.71a4.876 4.876 0 01-2.391.634 4.852 4.852 0 01-2.47-.682A4.835 4.835 0 010 55.489V13.112C0 5.024 5.603.388 15.375.388h18.301zm0 4.317H15.375c-7.337 0-11.058 2.826-11.058 8.407v42.377c0 .27.155.418.285.492.13.08.334.139.57.006L23.54 45.683a2.168 2.168 0 012.118.003l18.21 10.287a.537.537 0 00.573-.003.55.55 0 00.282-.495l-.001-42.165c-.022-2.477-.501-8.605-11.046-8.605zm1.264 15.048a2.16 2.16 0 010 4.317H13.877a2.16 2.16 0 010-4.317H34.94z" fill="#fff"/></svg><svg viewBox="0 0 38 30" id="twitter" xmlns="http://www.w3.org/2000/svg"><path d="M37.926 3.564a15.176 15.176 0 01-4.358 1.171A7.549 7.549 0 0036.896.564a14.94 14.94 0 01-4.801 1.828A7.549 7.549 0 0026.565 0a7.566 7.566 0 00-7.567 7.571c0 .586.072 1.172.187 1.735A21.505 21.505 0 013.58 1.385a7.514 7.514 0 00-1.03 3.82 7.572 7.572 0 003.374 6.307 7.632 7.632 0 01-3.422-.963v.093c0 3.679 2.6 6.728 6.067 7.429-.651.17-1.32.255-1.993.257-.493 0-.959-.048-1.43-.115.96 3 3.75 5.179 7.075 5.25a15.167 15.167 0 01-9.395 3.235c-.635 0-1.22-.022-1.828-.093A21.429 21.429 0 0012.62 30c13.917 0 21.533-11.53 21.533-21.537 0-.328 0-.657-.022-.985a16.299 16.299 0 003.794-3.914z" fill-opacity=".7"/></svg><svg viewBox="0 0 52 61" id="upload" xmlns="http://www.w3.org/2000/svg"><path fill-rule="evenodd" clip-rule="evenodd" d="M33.147.388c.13 0 .257.01.381.032l.408.002c.617 0 1.206.25 1.634.695l15.301 15.938c.402.42.629.985.629 1.568v27.756c.048 7.578-5.86 13.737-13.45 14.009H13.465C6.095 60.229.183 54.274 0 46.978L0 13.95C.178 6.457 6.364.422 13.8.422L32.765.42c.124-.021.252-.032.382-.032zM30.88 4.95l-17.071.002c-5.005 0-9.16 4.053-9.279 9.052v32.374c-.108 5.138 3.939 9.367 9.028 9.478h24.413c5.042-.181 9.031-4.34 8.998-9.462V21.479l-6.066.003c-5.53-.015-10.021-4.522-10.021-10.043l-.002-6.488zM24.587 22.01c.625 0 1.191.254 1.601.664l.003.002 7.086 7.116a2.265 2.265 0 01-3.21 3.195l-3.216-3.23v12.764a2.266 2.266 0 01-4.53 0V29.757l-3.212 3.23a2.245 2.245 0 01-1.604.667c-.577 0-1.157-.22-1.598-.661a2.262 2.262 0 01-.006-3.202l7.08-7.115.1-.094c.044-.038.09-.076.136-.111l-.236.205a2.07 2.07 0 01.27-.229 2.243 2.243 0 011.336-.437zM35.41 7.49l.002 3.948a5.52 5.52 0 005.497 5.512l3.577-.003-9.076-9.457z" fill="#fff"/></svg><svg viewBox="0 0 65 61" id="wallet" xmlns="http://www.w3.org/2000/svg"><path fill-rule="evenodd" clip-rule="evenodd" d="M45.82.388c10.35 0 18.768 8.418 18.768 18.77v22.46c0 10.349-8.418 18.77-18.767 18.77H18.77C8.42 60.388 0 51.967 0 41.618v-22.46C0 8.806 8.421.388 18.77.388h27.05zm0 4.694H18.77c-7.76 0-14.076 6.315-14.076 14.076v22.46c0 7.76 6.315 14.076 14.076 14.076h27.05c7.762 0 14.074-6.316 14.074-14.077v-.876l-10.32.002c-5.937 0-10.77-4.829-10.772-10.762 0-5.94 4.831-10.771 10.771-10.774l10.32-.002v-.047c0-7.761-6.311-14.076-14.072-14.076zm14.074 18.817l-10.32.002c-3.352.003-6.078 2.729-6.078 6.077 0 3.345 2.729 6.071 6.077 6.071l10.32-.002V23.9zm-8.889 3.538a2.348 2.348 0 010 4.694h-.976a2.348 2.348 0 010-4.694h.976zM33.438 14.589a2.348 2.348 0 010 4.694H16.542a2.348 2.348 0 010-4.694h16.896z" fill="#fff"/></svg><svg viewBox="0 0 44 30" id="youtube" xmlns="http://www.w3.org/2000/svg"><path d="M22.417 0h.237c2.195.008 13.312.088 16.31.894a5.365 5.365 0 013.777 3.79c.27 1.015.459 2.358.587 3.743l.027.278.058.694.022.277a86.32 86.32 0 01.197 5.224v.2a85.655 85.655 0 01-.219 5.499l-.021.28-.024.278c-.134 1.526-.331 3.043-.627 4.158a5.356 5.356 0 01-3.777 3.79c-3.097.834-14.865.892-16.496.895h-.38c-.824 0-4.236-.016-7.812-.139l-.454-.016-.232-.01-.457-.02-.456-.018c-2.963-.13-5.785-.341-7.085-.694a5.356 5.356 0 01-3.777-3.788c-.296-1.113-.493-2.632-.627-4.158l-.021-.28-.022-.278a83.818 83.818 0 01-.218-5.435v-.328c.005-.574.026-2.557.17-4.746l.019-.275.008-.139.021-.277.06-.694.026-.278c.128-1.385.317-2.73.587-3.742A5.357 5.357 0 015.595.895C6.895.546 9.716.333 12.68.2l.454-.018.46-.017.229-.008.456-.018c2.54-.082 5.082-.127 7.624-.136h.515V0zM18.01 8.568V21.43l11.096-6.428L18.01 8.568z" fill-opacity=".7"/></svg></svg>